<?xml version="1.0" standalone="no"?>
<!DOCTYPE svg PUBLIC "-//W3C//DTD SVG 1.1//EN" "http://www.w3.org/Graphics/SVG/1.1/DTD/svg11.dtd" >
<svg>
<metadata>
Created by FontForge 20090914 at Fri Feb 24 11:03:47 2012
 By root
2009
</metadata>
<defs>
<font id="FreewayGothic" horiz-adv-x="615" >
  <font-face 
    font-family="Freeway Gothic"
    font-weight="400"
    font-stretch="normal"
    units-per-em="1000"
    panose-1="0 0 4 0 0 0 0 0 0 0"
    ascent="800"
    descent="-200"
    x-height="489"
    cap-height="672"
    bbox="-15 -249 1281 866"
    underline-thickness="20"
    underline-position="-123"
    unicode-range="U+0020-U+2122"
  />
<missing-glyph horiz-adv-x="500" 
d="M63 0v800h375v-800h-375zM125 63h250v675h-250v-675z" />
    <glyph glyph-name=".notdef" horiz-adv-x="500" 
d="M63 0v800h375v-800h-375zM125 63h250v675h-250v-675z" />
    <glyph glyph-name="NULL" horiz-adv-x="0" 
 />
    <glyph glyph-name="nonmarkingreturn" horiz-adv-x="3" 
 />
    <glyph glyph-name="space" unicode=" " horiz-adv-x="355" 
 />
    <glyph glyph-name="space" unicode="&#xa0;" horiz-adv-x="355" 
 />
    <glyph glyph-name="exclam" unicode="!" horiz-adv-x="255" 
d="M200 61q0 -30 -21 -51.5t-52 -21.5q-30 0 -51.5 21.5t-21.5 51.5t21.5 51.5t51.5 21.5t51.5 -21.5t21.5 -51.5zM200 671v-243l-31 -229h-86l-29 229v243h146z" />
    <glyph glyph-name="quotedbl" unicode="&#x22;" horiz-adv-x="565" 
d="M474 672l-21 -270h-89l-22 270h132zM220 672l-21 -270h-87l-21 270h129z" />
    <glyph glyph-name="numbersign" unicode="#" horiz-adv-x="724" 
d="M656 496l-14 -106h-104l-16 -96h105l-16 -104h-103l-31 -190h-125l33 190h-96l-31 -190h-117l31 190h-106l16 104h104l16 96h-103l16 106h104l25 176h120l-28 -176h99l28 176h120l-28 -176h101zM418 390h-98l-15 -96h97z" />
    <glyph glyph-name="dollar" unicode="$" horiz-adv-x="675" 
d="M399 752v-114h-122v114h122zM399 -1v-114h-122v114h122zM610 197q0 -104 -77.5 -156.5t-193.5 -52.5q-152 1 -275 110l97 97q87 -67 185 -73q60 0 96 19.5t36 53.5q1 34 -33 56t-115 32q-120 15 -175.5 68t-54.5 125q0 88 60.5 146t174.5 59q139 -3 238 -87l-95 -95
q-57 44 -138 48q-60 0 -85 -17.5t-25 -44.5q1 -28 26.5 -42t85.5 -20q127 -12 197.5 -70.5t70.5 -155.5z" />
    <glyph glyph-name="percent" unicode="%" horiz-adv-x="475" 
d="M434 98h-36q1 25 -17.5 43t-44.5 18t-44.5 -17.5t-18.5 -43.5q0 -25 18.5 -43.5t44.5 -18.5t44.5 18.5t17.5 43.5h36q0 -40 -29 -69t-69 -29t-68.5 29t-28.5 69q0 41 28 69t69 28q39 0 68.5 -28.5t29.5 -68.5zM233 573h-36q1 25 -17.5 43t-44.5 18t-44.5 -17.5
t-18.5 -43.5q0 -25 18.5 -43.5t44.5 -18.5t44.5 18.5t17.5 43.5h36q0 -40 -29 -69t-69 -29t-68.5 29t-28.5 69q0 41 28 69t69 28q39 0 68.5 -28.5t29.5 -68.5zM451 670l-383 -670h-44l384 670h43z" />
    <glyph glyph-name="ampersand" unicode="&#x26;" horiz-adv-x="725" 
d="M410 512q-41 61 -86 61q-57 0 -57 -56q0 -26 14 -42l181 -226q26 40 37 108h123q-13 -119 -76 -208l118 -149h-150l-46 52q-78 -67 -191 -66q-94 0 -154 52t-60 134q-1 153 119 233q-12 16 -25.5 45t-13.5 67q0 69 51.5 115.5t126.5 46.5q111 0 186 -108zM382 147
l-131 156q-58 -43 -57 -114q0 -39 26 -64t65 -25q58 -1 97 47z" />
    <glyph glyph-name="quotesingle" unicode="'" horiz-adv-x="325" 
d="M227 672l-21 -270h-87l-21 270h129z" />
    <glyph glyph-name="parenleft" unicode="(" horiz-adv-x="285" 
d="M244 -77h-87q-115 162 -115 385q0 218 115 380h87q-38 -61 -61 -106q-54 -115 -54 -277q0 -144 59 -279q16 -36 56 -103z" />
    <glyph glyph-name="parenright" unicode=")" horiz-adv-x="285" 
d="M42 -77q40 67 56 103q59 135 59 279q0 162 -54 277q-23 45 -61 106h87q115 -162 115 -380q0 -223 -115 -385h-87v0z" />
    <glyph glyph-name="asterisk" unicode="*" horiz-adv-x="482" 
d="M429 493l-89 -23l58 -66l-94 -68l-61 73l-63 -73l-96 63l58 71l-89 23l33 111l96 -26l-4 92h129l-5 -92l92 24z" />
    <glyph glyph-name="plus" unicode="+" horiz-adv-x="505" 
d="M470 274h-153v-152h-131v152h-151v137h151v147h131v-147h153v-137z" />
    <glyph glyph-name="comma" unicode="," horiz-adv-x="255" 
d="M200 61q0 -61 -33 -108.5t-97 -62.5v39q44 18 57 59q-30 0 -51.5 21.5t-21.5 51.5t21.5 51.5t51.5 21.5t51.5 -21.5t21.5 -51.5z" />
    <glyph glyph-name="comma" unicode="&#x201a;" horiz-adv-x="255" 
d="M200 61q0 -61 -33 -108.5t-97 -62.5v39q44 18 57 59q-30 0 -51.5 21.5t-21.5 51.5t21.5 51.5t51.5 21.5t51.5 -21.5t21.5 -51.5z" />
    <glyph glyph-name="hyphen" unicode="-" horiz-adv-x="315" 
d="M278 274h-242v137h242v-137z" />
    <glyph glyph-name="hyphen" unicode="&#xad;" horiz-adv-x="315" 
d="M278 274h-242v137h242v-137z" />
    <glyph glyph-name="period" unicode="." horiz-adv-x="255" 
d="M200 61q0 -30 -21 -51.5t-52 -21.5q-30 0 -51.5 21.5t-21.5 51.5t21.5 51.5t51.5 21.5t51.5 -21.5t21.5 -51.5z" />
    <glyph glyph-name="slash" unicode="/" horiz-adv-x="569" 
d="M569 672l-427 -672h-142l432 672h137z" />
    <glyph glyph-name="zero" unicode="0" horiz-adv-x="695" 
d="M628 336q0 -160 -76 -254t-203 -94q-142 0 -217 108q-65 94 -65 240q0 159 76 252t206 93q122 0 200.5 -95.5t78.5 -249.5zM497 338q1 100 -36.5 155t-111.5 55q-69 0 -108.5 -53t-39.5 -159q0 -102 38.5 -158t109.5 -56q68 0 108 58.5t40 157.5z" />
    <glyph glyph-name="one" unicode="1" horiz-adv-x="385" 
d="M293 0h-136v488h-75v124q63 9 95 60h116v-672z" />
    <glyph glyph-name="two" unicode="2" horiz-adv-x="685" 
d="M614 0h-544q33 265 315 392q58 26 77.5 43.5t19.5 43.5q0 30 -36.5 49.5t-95.5 19.5q-96 -5 -163 -68l-104 87q116 114 272 114q135 0 197 -58t62 -139q1 -60 -39.5 -116.5t-138.5 -91.5q-132 -55 -183 -143h361v-133z" />
    <glyph glyph-name="three" unicode="3" horiz-adv-x="685" 
d="M614 197q0 -93 -71.5 -151t-184.5 -58q-171 0 -287 148l104 79q77 -91 190 -93q54 0 85.5 21t31.5 59q2 37 -23 64.5t-66 27.5h-47v134h46q31 2 44.5 15.5t12.5 38.5q0 30 -29.5 48t-78.5 18q-81 0 -143 -57l-95 79q104 111 243 111q104 0 169.5 -54t65.5 -141
q0 -93 -58 -133q88 -50 91 -156z" />
    <glyph glyph-name="four" unicode="4" horiz-adv-x="745" 
d="M685 148h-101v-148h-131v148h-393v128l396 396h128v-399h101v-125zM453 273v218l-218 -218h218z" />
    <glyph glyph-name="five" unicode="5" horiz-adv-x="685" 
d="M616 223q0 -107 -76 -171t-192 -64q-141 2 -278 70l73 116q97 -52 205 -52q70 0 104 31t32 73q1 43 -34 72t-105 29q-52 1 -134 -25l-120 35l24 335h442v-134h-315l-6 -88q57 11 112 12q92 -1 148.5 -33t88 -87t31.5 -119z" />
    <glyph glyph-name="six" unicode="6" horiz-adv-x="685" 
d="M613 193q0 -92 -72.5 -148.5t-191.5 -56.5q-135 1 -206 73t-72 193q6 165 126 295.5t312 131.5v-133q-91 -1 -169 -53.5t-100 -114.5q37 18 109 19q116 1 189.5 -53.5t74.5 -152.5zM481 195q0 32 -33 52.5t-99 19.5q-65 0 -100 -20.5t-34 -51.5q0 -33 38.5 -53t100.5 -20
q58 0 92.5 20t34.5 53z" />
    <glyph glyph-name="seven" unicode="7" horiz-adv-x="685" 
d="M614 541q-200 -273 -216 -541h-134q20 291 184 538h-377v132h543v-129z" />
    <glyph glyph-name="eight" unicode="8" horiz-adv-x="685" 
d="M614 211q0 -100 -78 -164q-72 -59 -190 -59q-154 0 -224 85q-51 63 -51 138q-1 100 79 153q-57 44 -58 127q0 87 70.5 138.5t183.5 51.5t179.5 -51t66.5 -139q0 -83 -58 -125q78 -44 80 -155zM464 489q-1 31 -32 47t-84 16q-54 0 -87 -15.5t-33 -43.5q1 -33 33.5 -48.5
t86.5 -15.5q65 0 91 16.5t25 43.5zM482 211q1 34 -31 61.5t-106 28.5q-72 0 -106 -25t-34 -65q0 -42 36.5 -65.5t104.5 -23.5q74 1 105.5 27t30.5 62z" />
    <glyph glyph-name="nine" unicode="9" horiz-adv-x="685" 
d="M71 476q0 92 72.5 148.5t191.5 56.5q135 -1 206 -73t72 -193q-6 -165 -126 -295.5t-312 -131.5v133q91 1 169 53.5t100 114.5q-37 -18 -109 -19q-116 -1 -189.5 53.5t-74.5 152.5zM203 474q0 -32 33 -52.5t99 -19.5q65 0 100 20.5t34 51.5q0 33 -38.5 53t-100.5 20
q-58 0 -92.5 -20t-34.5 -53z" />
    <glyph glyph-name="colon" unicode=":" horiz-adv-x="255" 
d="M200 61q0 -30 -21 -51.5t-52 -21.5q-30 0 -51.5 21.5t-21.5 51.5t21.5 51.5t51.5 21.5t51.5 -21.5t21.5 -51.5zM200 435q0 -31 -21 -52t-52 -21q-30 0 -51.5 21.5t-21.5 51.5t21.5 51.5t51.5 21.5t51.5 -21.5t21.5 -51.5z" />
    <glyph glyph-name="semicolon" unicode=";" horiz-adv-x="255" 
d="M200 61q0 -61 -33 -108.5t-97 -62.5v39q44 18 57 59q-30 0 -51.5 21.5t-21.5 51.5t21.5 51.5t51.5 21.5t51.5 -21.5t21.5 -51.5zM200 435q0 -31 -21 -52t-52 -21q-30 0 -51.5 21.5t-21.5 51.5t21.5 51.5t51.5 21.5t51.5 -21.5t21.5 -51.5z" />
    <glyph glyph-name="less" unicode="&#x3c;" horiz-adv-x="634" 
d="M562 87l-489 184v148l489 183v-139l-313 -122l313 -113v-141z" />
    <glyph glyph-name="equal" unicode="=" horiz-adv-x="477" 
d="M456 376h-435v134h435v-134zM456 174h-435v134h435v-134z" />
    <glyph glyph-name="greater" unicode="&#x3e;" horiz-adv-x="634" 
d="M73 228l313 113l-313 122v139l489 -183v-148l-489 -184v141z" />
    <glyph glyph-name="question" unicode="?" horiz-adv-x="595" 
d="M387 61q0 -30 -21 -51.5t-52 -21.5q-30 0 -51.5 21.5t-21.5 51.5t21.5 51.5t51.5 21.5t51.5 -21.5t21.5 -51.5zM543 496q0 -43 -24 -85t-46 -65q-28 -33 -53.5 -74.5t-32.5 -80.5h-139q5 42 31.5 97t74.5 108q25 27 40.5 50t14.5 43q-1 25 -23 42t-66 17q-97 -2 -168 -79
l-101 77q112 135 267 135q100 0 162 -54t63 -131z" />
    <glyph glyph-name="at" unicode="@" horiz-adv-x="705" 
d="M500 245q-2 -30 25 -30q32 0 62 52.5t30 111.5q0 103 -68 167t-177 64q-117 0 -196.5 -81.5t-79.5 -200.5q0 -118 74.5 -195t201.5 -77q107 0 191 36l19 -71q-87 -35 -207 -35q-157 0 -255.5 91t-98.5 252q0 148 100 250t244 102q140 0 229 -84t89 -214
q0 -92 -48.5 -162.5t-113.5 -70.5q-58 -1 -85 45q-42 -25 -98 -25q-66 0 -100.5 32t-34.5 82q0 52 38 87t97 35q40 0 76 -11q2 44 -59 44q-47 0 -91 -23l-35 70q67 35 126 35q145 0 145 -140v-136zM414 268v48q-41 11 -76 11q-21 0 -36 -11t-15 -27t17.5 -27.5t41.5 -11.5
q36 0 68 18z" />
    <glyph glyph-name="A" unicode="A" horiz-adv-x="775" 
d="M727 0h-143l-64 157h-265l-64 -157h-143l270 672h139zM466 291l-75 188l-82 -188h157z" />
    <glyph glyph-name="B" unicode="B" horiz-adv-x="695" 
d="M618 200q0 -55 -26 -101.5t-72 -72.5t-99 -26h-343v672h313q62 0 111 -25t73 -72t22 -96q0 -83 -53 -125q74 -50 74 -154zM465 478q0 26 -17.5 43t-42.5 17h-195v-115h192q30 1 46.5 16t16.5 39zM489 211q0 28 -21.5 52t-60.5 26h-197v-155h207q38 2 56.5 26t15.5 51z
" />
    <glyph glyph-name="C" unicode="C" horiz-adv-x="695" 
d="M619 136q-47 -82 -109.5 -115t-142.5 -33q-139 0 -215 100t-76 248q0 155 82 250t214 95q80 0 146 -38.5t101 -106.5l-118 -64q-44 76 -134 76q-72 0 -114.5 -57.5t-42.5 -154.5q0 -99 42.5 -156.5t114.5 -57.5q88 0 134 78z" />
    <glyph glyph-name="D" unicode="D" horiz-adv-x="705" 
d="M623 336q0 -153 -90.5 -244.5t-240.5 -91.5h-209v672h209q151 0 241 -92t90 -244zM492 336q0 95 -51.5 148.5t-141.5 53.5h-84v-404h84q90 0 141.5 53.5t51.5 148.5z" />
    <glyph glyph-name="E" unicode="E" horiz-adv-x="675" 
d="M586 0h-498v672h489v-134h-357v-110h202v-134h-202v-160h366v-134z" />
    <glyph glyph-name="F" unicode="F" horiz-adv-x="675" 
d="M587 538h-366v-120h216v-134h-216v-284h-132v672h498v-134z" />
    <glyph glyph-name="G" unicode="G" horiz-adv-x="705" 
d="M641 330q0 -159 -73 -250.5t-203 -91.5q-139 0 -215 100t-76 248q0 155 82 250t214 95q80 0 146 -38.5t101 -106.5l-118 -64q-44 76 -134 76q-72 0 -114.5 -57.5t-42.5 -154.5q0 -99 42.5 -156.5t116.5 -58.5q91 2 116 79h-118v130h276z" />
    <glyph glyph-name="H" unicode="H" horiz-adv-x="725" 
d="M632 0h-131v294h-277v-294h-132v670h132v-242h277v242h131v-670z" />
    <glyph glyph-name="I" unicode="I" horiz-adv-x="345" 
d="M239 0h-134v672h134v-672z" />
    <glyph glyph-name="J" unicode="J" horiz-adv-x="725" 
d="M636 275q0 -89 -34 -151t-96.5 -99t-134.5 -37q-110 0 -183.5 63.5t-99.5 141.5l133 42q47 -112 150 -111q52 0 92.5 40t41.5 99v409h131v-397z" />
    <glyph glyph-name="K" unicode="K" horiz-adv-x="725" 
d="M638 0h-148l-155 334l-117 -144v-190h-132v672h132v-265l211 265h167l-169 -221z" />
    <glyph glyph-name="L" unicode="L" horiz-adv-x="675" 
d="M586 0h-498v672h132v-538h366v-134z" />
    <glyph glyph-name="M" unicode="M" horiz-adv-x="805" 
d="M715 0h-132v364l-178 -364l-183 364v-364h-132v672h132l183 -369l178 369h132v-672z" />
    <glyph glyph-name="N" unicode="N" horiz-adv-x="715" 
d="M628 0h-115l-293 430v-430h-132v672h132l277 -411v411h131v-672z" />
    <glyph glyph-name="O" unicode="O" horiz-adv-x="695" 
d="M628 336q0 -160 -76 -254t-203 -94q-142 0 -217 108q-65 94 -65 240q0 159 76 252t206 93q122 0 200.5 -95.5t78.5 -249.5zM497 338q1 100 -36.5 155t-111.5 55q-69 0 -108.5 -53t-39.5 -159q0 -102 38.5 -158t109.5 -56q68 0 108 58.5t40 157.5z" />
    <glyph glyph-name="P" unicode="P" horiz-adv-x="715" 
d="M628 463q0 -63 -31 -114t-88 -77q-42 -21 -113 -21h-176v-251h-132v672h315q74 0 122 -28t75.5 -76.5t27.5 -104.5zM497 463q0 32 -24 53.5t-61 21.5h-192v-153h192q39 0 62 21.5t23 56.5z" />
    <glyph glyph-name="Q" unicode="Q" horiz-adv-x="695" 
d="M627 337q-2 -154 -78 -269l40 -61l-96 -71l-45 68q-51 -17 -100 -17q-143 0 -218 108q-64 93 -64 240q0 157 77.5 251t204.5 94q126 0 202.5 -93.5t76.5 -249.5zM496 337q0 101 -39 155.5t-109 54.5q-72 1 -110 -52.5t-38 -159.5q0 -102 38.5 -159t111.5 -57q8 0 16 3
l-39 57l94 71l42 -61q32 52 33 148z" />
    <glyph glyph-name="R" unicode="R" horiz-adv-x="715" 
d="M628 0h-141l-91 251h-176v-251h-132v672h303q73 0 122.5 -28t77.5 -76.5t28 -104.5q0 -116 -96 -179zM487 463q0 32 -23.5 53.5t-60.5 21.5h-183v-153h183q37 0 60.5 21.5t23.5 56.5z" />
    <glyph glyph-name="S" unicode="S" horiz-adv-x="675" 
d="M610 197q0 -104 -77.5 -156.5t-193.5 -52.5q-152 1 -275 110l97 97q87 -67 185 -73q60 0 96 19.5t36 53.5q1 34 -33 56t-115 32q-120 15 -175.5 68t-54.5 125q0 88 60.5 146t174.5 59q139 -3 238 -87l-95 -95q-57 44 -138 48q-60 0 -85 -17.5t-25 -44.5q1 -28 26.5 -42
t85.5 -20q127 -12 197.5 -70.5t70.5 -155.5z" />
    <glyph glyph-name="T" unicode="T" horiz-adv-x="675" 
d="M586 538h-183v-538h-130v538h-185v134h498v-134z" />
    <glyph glyph-name="U" unicode="U" horiz-adv-x="725" 
d="M633 275q0 -89 -35 -153q-33 -60 -95.5 -97t-134.5 -37q-110 0 -192.5 78.5t-82.5 184.5v421h132v-416q0 -54 42.5 -94t98.5 -40q82 0 119 68q17 30 17 85v397h131v-397z" />
    <glyph glyph-name="V" unicode="V" horiz-adv-x="675" 
d="M645 672l-233 -672h-141l-242 672h141l171 -472l165 472h139z" />
    <glyph glyph-name="W" unicode="W" horiz-adv-x="815" 
d="M763 672l-106 -672h-141l-103 402l-115 -402h-141l-106 672h134l59 -362l94 362h141l94 -362l56 362h134z" />
    <glyph glyph-name="X" unicode="X" horiz-adv-x="715" 
d="M655 0h-163l-136 223l-139 -223h-158l214 352l-192 318h157l118 -191l113 191h159l-190 -320z" />
    <glyph glyph-name="Y" unicode="Y" horiz-adv-x="775" 
d="M727 672l-270 -399v-273h-134v273l-275 399h160l185 -258l174 258h160z" />
    <glyph glyph-name="Z" unicode="Z" horiz-adv-x="675" 
d="M607 0h-540v136l371 402h-350v134h519v-148l-360 -390h360v-134z" />
    <glyph glyph-name="bracketleft" unicode="[" horiz-adv-x="275" 
d="M38 692h198v-73h-128v-709h128v-73h-198v855z" />
    <glyph glyph-name="backslash" unicode="\" horiz-adv-x="569" 
d="M137 672l432 -672h-142l-427 672h137z" />
    <glyph glyph-name="bracketright" unicode="]" horiz-adv-x="275" 
d="M236 -163h-198v73h128v709h-128v73h198v-855z" />
    <glyph glyph-name="asciicircum" unicode="^" horiz-adv-x="485" 
d="M336 270l-92 255l-98 -255h-112l148 400h120l149 -400h-115z" />
    <glyph glyph-name="underscore" unicode="_" horiz-adv-x="556" 
d="M-15 -199v64h582v-64h-582z" />
    <glyph glyph-name="grave" unicode="`" horiz-adv-x="245" 
d="M145 533l-122 137h130l69 -137h-77z" />
    <glyph glyph-name="a" unicode="a" 
d="M528 0h-127v16q-59 -23 -130 -23q-81 0 -133 46t-52 118q0 76 57.5 126.5t144.5 50.5q59 0 115 -13q2 27 -20 43t-69 17q-70 0 -136 -36l-52 104q100 52 188 52q96 0 155 -45t59 -137v-319zM401 134v73q-60 12 -113 12q-32 0 -53.5 -16t-21.5 -39q0 -22 25.5 -39
t61.5 -17q55 0 101 26z" />
    <glyph glyph-name="b" unicode="b" 
d="M87 619l125 62v-213q43 33 115 33q82 0 142 -75.5t60 -178.5q0 -104 -53.5 -180t-148.5 -76q-65 0 -115 32v-23h-125v619zM212 167q33 -47 94 -47q40 0 66 37t26 92t-26 90t-66 35q-62 0 -94 -47v-160z" />
    <glyph glyph-name="c" unicode="c" 
d="M529 89q-71 -98 -191 -98q-105 0 -178 73t-74 182q1 109 74 182t178 73q120 0 191 -97l-92 -71q-34 41 -99 41q-48 0 -84 -37t-36 -90q0 -54 36 -90.5t84 -36.5q52 1 89 40z" />
    <glyph glyph-name="d" unicode="d" 
d="M529 0h-125v23q-50 -32 -115 -32q-95 0 -148.5 76t-53.5 180q0 103 60 178.5t142 75.5q72 0 115 -33v151l125 62v-681zM404 167v160q-32 47 -94 47q-40 0 -66 -35t-26 -90t26 -92t66 -37q61 0 94 47z" />
    <glyph glyph-name="e" unicode="e" 
d="M532 202h-320q9 -42 38 -66t69 -23q45 0 80 35l89 -70q-67 -87 -170 -87q-104 0 -170 71.5t-66 183.5q0 71 30 131t85 92t115 32q61 0 113.5 -36t79.5 -95.5t27 -167.5zM400 313q-7 32 -32 50t-56 19q-31 -1 -56.5 -19t-32.5 -50h177z" />
    <glyph glyph-name="f" unicode="f" horiz-adv-x="435" 
d="M364 374h-96v-374h-127v372h-73v117h73v59q0 49 34.5 91t101.5 42q47 0 87 -24v-103q-26 9 -51 10q-20 0 -31.5 -10t-13.5 -33v-32h96v-115z" />
    <glyph glyph-name="g" unicode="g" 
d="M529 0q-11 -198 -210 -249l-54 107q138 50 139 142v23q-50 -32 -115 -32q-95 0 -148.5 76t-53.5 180q0 103 60 178.5t142 75.5q72 0 115 -33v21h125v-489zM404 167v160q-32 47 -94 47q-40 0 -66 -35t-26 -90t26 -92t66 -37q61 0 94 47z" />
    <glyph glyph-name="h" unicode="h" 
d="M528 0h-132v294q-2 34 -26.5 57t-59.5 25q-38 -1 -62.5 -24t-27.5 -56v-296h-134v614l134 67v-222q49 42 122 42q78 0 132 -59t54 -148v-294z" />
    <glyph glyph-name="i" unicode="i" horiz-adv-x="405" 
d="M269 614q0 -26 -20 -46.5t-47 -20.5q-30 0 -48.5 20.5t-18.5 46.5q0 27 20.5 47t46.5 20q25 0 46 -19t21 -48zM269 0h-134v489h134v-489z" />
    <glyph glyph-name="j" unicode="j" horiz-adv-x="405" 
d="M269 614q0 -26 -20 -46.5t-47 -20.5q-30 0 -48.5 20.5t-18.5 46.5q0 27 20.5 47t46.5 20q25 0 46 -19t21 -48zM269 0q-5 -164 -148 -249l-68 109q73 56 82 140v489h134v-489z" />
    <glyph glyph-name="k" unicode="k" 
d="M502 486l-114 -153l143 -333h-143l-98 229l-71 -96v-133h-134v614l134 67v-342l120 147h163z" />
    <glyph glyph-name="l" unicode="l" horiz-adv-x="405" 
d="M269 0h-134v614l134 67v-681z" />
    <glyph glyph-name="m" unicode="m" horiz-adv-x="905" 
d="M820 0h-131v294q0 33 -26 56.5t-61 23.5q-33 0 -59 -23.5t-26 -52.5v-298h-127v294q0 33 -24.5 56.5t-59.5 23.5t-61 -23t-26 -55v-296h-134v489h134v-26q52 38 120 38q91 0 136 -57q50 57 150 57q85 -2 140 -61t55 -146v-294z" />
    <glyph glyph-name="n" unicode="n" 
d="M528 0h-132v294q-2 34 -26.5 57t-59.5 25q-38 -1 -62.5 -24t-27.5 -56v-296h-134v489h134v-30q49 42 122 42q78 0 132 -59t54 -148v-294z" />
    <glyph glyph-name="o" unicode="o" 
d="M536 244q0 -109 -64 -181t-168 -72q-95 0 -160.5 74t-65.5 179q0 109 65.5 183t160.5 74q95 -1 163.5 -74.5t68.5 -182.5zM409 244q0 54 -24 91t-78 39q-52 -1 -77.5 -38.5t-24.5 -91.5q0 -52 27.5 -87.5t75.5 -36.5q48 1 74.5 34.5t26.5 89.5z" />
    <glyph glyph-name="p" unicode="p" 
d="M87 489h125v-21q43 33 115 33q82 0 142 -75.5t60 -178.5q0 -104 -53.5 -180t-148.5 -76q-65 0 -115 32v-209l-125 -63v738zM212 167q33 -47 94 -47q40 0 66 37t26 92t-26 90t-66 35q-62 0 -94 -47v-160z" />
    <glyph glyph-name="q" unicode="q" 
d="M529 -186l-125 -63v272q-50 -32 -115 -32q-95 0 -148.5 76t-53.5 180q0 103 60 178.5t142 75.5q72 0 115 -33v21h125v-675zM404 167v160q-32 47 -94 47q-40 0 -66 -35t-26 -90t26 -92t66 -37q61 0 94 47z" />
    <glyph glyph-name="r" unicode="r" horiz-adv-x="515" 
d="M426 462l-42 -128q-30 31 -74 30q-37 -1 -62 -28t-25 -66v-270h-134v489h134v-33q31 45 89 45q66 0 114 -39z" />
    <glyph glyph-name="s" unicode="s" 
d="M526 148q0 -75 -53.5 -116t-170.5 -41q-103 0 -228 55l59 116q79 -42 175 -43q44 1 65 6t20 25q0 20 -19.5 27t-76.5 12q-96 6 -146 42.5t-51 102.5q-2 74 53.5 120.5t147.5 46.5q104 0 211 -52l-53 -115q-83 36 -153 40q-37 0 -54.5 -8t-17.5 -24q1 -16 17 -21t64 -8
q110 -9 160.5 -55.5t50.5 -109.5z" />
    <glyph glyph-name="t" unicode="t" horiz-adv-x="475" 
d="M408 371h-119v-202q-1 -29 12.5 -41t33.5 -11q35 0 73 29l-53 -137q-33 -18 -69 -18q-60 0 -93 36.5t-35 94.5v249h-92v115h92v129l131 66v-192h119v-118z" />
    <glyph glyph-name="u" unicode="u" 
d="M86 489h132v-294q2 -34 26.5 -57t59.5 -25q38 1 62.5 24t27.5 56v296h134v-489h-134v30q-49 -42 -122 -42q-78 0 -132 59t-54 148v294z" />
    <glyph glyph-name="v" unicode="v" 
d="M565 489l-184 -489h-148l-183 489h139l121 -311l114 311h141z" />
    <glyph glyph-name="w" unicode="w" horiz-adv-x="815" 
d="M762 489l-145 -489h-139l-68 239l-76 -239h-135l-146 489h141l73 -233l75 233h130l75 -233l71 233h144z" />
    <glyph glyph-name="x" unicode="x" horiz-adv-x="645" 
d="M591 0h-160l-106 162l-110 -162h-160l185 270l-143 219h158l70 -99l66 99h160l-146 -219z" />
    <glyph glyph-name="y" unicode="y" horiz-adv-x="645" 
d="M604 489l-318 -738h-147l110 249l-207 489h153l128 -315l138 315h143z" />
    <glyph glyph-name="z" unicode="z" 
d="M536 0h-456v118l239 239h-225v132h442v-110l-247 -247h247v-132z" />
    <glyph glyph-name="braceleft" unicode="{" horiz-adv-x="335" 
d="M26 299q76 2 93 73q7 34 8 115q0 37 3 108q11 106 91 128q17 5 60 5h28v-77h-16q-54 0 -70 -23q-14 -19 -14 -77q0 -129 -5 -161q-8 -51 -29.5 -80t-67.5 -51q65 -27 87 -90q15 -44 15 -130q0 -96 2 -113q5 -37 25 -50q17 -10 57 -10h16v-76h-28q-47 0 -69 7
q-66 24 -79 100q-3 24 -3 102t-6 116q-9 61 -37 84q-24 19 -61 20v80z" />
    <glyph glyph-name="bar" unicode="|" horiz-adv-x="205" 
d="M77 -210v938h50v-938h-50z" />
    <glyph glyph-name="braceright" unicode="}" horiz-adv-x="335" 
d="M309 219q-37 -1 -61 -20q-28 -23 -37 -84q-6 -38 -6 -116t-3 -102q-13 -76 -79 -100q-22 -7 -69 -7h-28v76h16q40 0 57 10q20 13 25 50q2 17 2 113q0 86 15 130q22 63 87 90q-46 22 -67.5 51t-29.5 80q-5 32 -5 161q0 58 -14 77q-16 23 -70 23h-16v77h28q43 0 60 -5
q80 -22 91 -128q3 -71 3 -108q1 -81 8 -115q17 -71 93 -73v-80z" />
    <glyph glyph-name="asciitilde" unicode="~" horiz-adv-x="584" 
d="M42 272v100q52 59 136 59q53 0 154 -43q54 -23 84 -23q65 0 126 67v-103q-59 -56 -135 -56q-52 0 -141 40q-58 25 -96 25q-59 0 -128 -66z" />
    <glyph glyph-name="Euro" unicode="&#x20ac;" horiz-adv-x="695" 
d="M635 136q-47 -82 -109.5 -115t-142.5 -33q-139 0 -215 100t-76 248q0 155 82 250t214 95q80 0 146 -38.5t101 -106.5l-118 -64q-44 76 -134 76q-72 0 -114.5 -57.5t-42.5 -154.5q0 -99 42.5 -156.5t114.5 -57.5q88 0 134 78zM467 366h-407v59h407v-59zM467 247h-407v59
h407v-59z" />
    <glyph glyph-name="florin" unicode="&#x192;" horiz-adv-x="435" 
d="M365 374h-96v-552l-127 -64v614h-73v117h73v59q0 49 34.5 91t101.5 42q47 0 87 -24v-103q-26 9 -51 10q-20 0 -31.5 -10t-13.5 -33v-32h96v-115z" />
    <glyph glyph-name="quotedblbase" unicode="&#x201e;" horiz-adv-x="475" 
d="M415 61q0 -61 -33 -108.5t-97 -62.5v39q44 18 57 59q-30 0 -51.5 21.5t-21.5 51.5t21.5 51.5t51.5 21.5t51.5 -21.5t21.5 -51.5zM205 61q0 -61 -33 -108.5t-97 -62.5v39q44 18 57 59q-30 0 -51.5 21.5t-21.5 51.5t21.5 51.5t51.5 21.5t51.5 -21.5t21.5 -51.5z" />
    <glyph glyph-name="ellipsis" unicode="&#x2026;" horiz-adv-x="805" 
d="M469 54q0 -27 -20 -46.5t-48 -19.5q-27 0 -46.5 20t-19.5 46q0 28 19.5 48t46.5 20q28 0 48 -20t20 -48zM755 54q0 -27 -20 -46.5t-48 -19.5q-27 0 -46.5 20t-19.5 46q0 28 19.5 48t46.5 20q28 0 48 -20t20 -48zM184 54q0 -27 -20 -46.5t-48 -19.5q-27 0 -46.5 20
t-19.5 46q0 28 19.5 48t46.5 20q28 0 48 -20t20 -48z" />
    <glyph glyph-name="dagger" unicode="&#x2020;" horiz-adv-x="455" 
d="M245 445v-553h-39v553h-168v45h168v201h39v-201h171v-45h-171z" />
    <glyph glyph-name="daggerdbl" unicode="&#x2021;" horiz-adv-x="455" 
d="M245 445v-303h171v-46h-171v-204h-39v204h-168v45h168v304h-168v45h168v201h39v-201h171v-45h-171z" />
    <glyph glyph-name="circumflex" unicode="&#x2c6;" horiz-adv-x="345" 
d="M247 533l-75 75l-75 -75h-78l97 137h112l98 -137h-79z" />
    <glyph glyph-name="perthousand" unicode="&#x2030;" horiz-adv-x="705" 
d="M675 98h-36q1 25 -17.5 43t-44.5 18t-44.5 -17.5t-18.5 -43.5q0 -25 18.5 -43.5t44.5 -18.5t44.5 18.5t17.5 43.5h36q0 -40 -29 -69t-69 -29t-68.5 29t-28.5 69q0 41 28 69t69 28q39 0 68.5 -28.5t29.5 -68.5zM238 573h-36q1 25 -17.5 43t-44.5 18t-44.5 -17.5
t-18.5 -43.5q0 -25 18.5 -43.5t44.5 -18.5t44.5 18.5t17.5 43.5h36q0 -40 -29 -69t-69 -29t-68.5 29t-28.5 69q0 41 28 69t69 28q39 0 68.5 -28.5t29.5 -68.5zM456 670l-383 -670h-44l384 670h43zM439 98h-36q1 25 -17.5 43t-44.5 18t-44.5 -17.5t-18.5 -43.5
q0 -25 18.5 -43.5t44.5 -18.5t44.5 18.5t17.5 43.5h36q0 -40 -29 -69t-69 -29t-68.5 29t-28.5 69q0 41 28 69t69 28q39 0 68.5 -28.5t29.5 -68.5z" />
    <glyph glyph-name="Scaron" unicode="&#x160;" horiz-adv-x="675" 
d="M491 836l-98 -137h-112l-97 137h78l75 -75l75 75h79zM610 197q0 -104 -77.5 -156.5t-193.5 -52.5q-152 1 -275 110l97 97q87 -67 185 -73q60 0 96 19.5t36 53.5q1 34 -33 56t-115 32q-120 15 -175.5 68t-54.5 125q0 88 60.5 146t174.5 59q139 -3 238 -87l-95 -95
q-57 44 -138 48q-60 0 -85 -17.5t-25 -44.5q1 -28 26.5 -42t85.5 -20q127 -12 197.5 -70.5t70.5 -155.5z" />
    <glyph glyph-name="guilsinglleft" unicode="&#x2039;" horiz-adv-x="275" 
d="M255 501l-116 -205l116 -205h-117l-117 205l117 205h117z" />
    <glyph glyph-name="OE" unicode="&#x152;" horiz-adv-x="1115" 
d="M1021 0h-498v672h489v-134h-357v-110h202v-134h-202v-160h366v-134zM654 336q0 -160 -76 -254t-203 -94q-142 0 -217 108q-65 94 -65 240q0 159 76 252t206 93q122 0 200.5 -95.5t78.5 -249.5zM523 338q1 100 -36.5 155t-111.5 55q-69 0 -108.5 -53t-39.5 -159
q0 -102 38.5 -158t109.5 -56q68 0 108 58.5t40 157.5z" />
    <glyph glyph-name="Zcaron" unicode="&#x17d;" horiz-adv-x="675" 
d="M607 0h-540v136l371 402h-350v134h519v-148l-360 -390h360v-134zM491 836l-98 -137h-112l-97 137h78l75 -75l75 75h79z" />
    <glyph glyph-name="quoteleft" unicode="&#x2018;" horiz-adv-x="255" 
d="M54 499q0 61 33 108.5t97 62.5v-39q-44 -18 -57 -59q30 0 51.5 -21.5t21.5 -51.5t-21.5 -51.5t-51.5 -21.5t-51.5 21.5t-21.5 51.5z" />
    <glyph glyph-name="quoteright" unicode="&#x2019;" horiz-adv-x="255" 
d="M200 597q0 -61 -33 -108.5t-97 -62.5v39q44 18 57 59q-30 0 -51.5 21.5t-21.5 51.5t21.5 51.5t51.5 21.5t51.5 -21.5t21.5 -51.5z" />
    <glyph glyph-name="quotedblleft" unicode="&#x201c;" horiz-adv-x="475" 
d="M60 499q0 61 33 108.5t97 62.5v-39q-44 -18 -57 -59q30 0 51.5 -21.5t21.5 -51.5t-21.5 -51.5t-51.5 -21.5t-51.5 21.5t-21.5 51.5zM270 499q0 61 33 108.5t97 62.5v-39q-44 -18 -57 -59q30 0 51.5 -21.5t21.5 -51.5t-21.5 -51.5t-51.5 -21.5t-51.5 21.5t-21.5 51.5z" />
    <glyph glyph-name="quotedblright" unicode="&#x201d;" horiz-adv-x="475" 
d="M416 597q0 -61 -33 -108.5t-97 -62.5v39q44 18 57 59q-30 0 -51.5 21.5t-21.5 51.5t21.5 51.5t51.5 21.5t51.5 -21.5t21.5 -51.5zM206 597q0 -61 -33 -108.5t-97 -62.5v39q44 18 57 59q-30 0 -51.5 21.5t-21.5 51.5t21.5 51.5t51.5 21.5t51.5 -21.5t21.5 -51.5z" />
    <glyph glyph-name="bullet" unicode="&#x2022;" horiz-adv-x="625" 
d="M565 303q0 -107 -73.5 -180t-179.5 -73q-105 0 -178.5 74t-73.5 179q0 106 73 179t179 73q105 0 179 -73t74 -179z" />
    <glyph glyph-name="endash" unicode="&#x2013;" horiz-adv-x="695" 
d="M656 274h-618v137h618v-137z" />
    <glyph glyph-name="emdash" unicode="&#x2014;" horiz-adv-x="1325" 
d="M1281 274h-1237v137h1237v-137z" />
    <glyph glyph-name="tilde" unicode="&#x2dc;" horiz-adv-x="355" 
d="M338 670q-3 -61 -35.5 -90.5t-72.5 -28.5q-12 1 -18 2t-16 4l-56 20q-9 2 -14 3t-14 1q-11 0 -22.5 -11.5t-12.5 -29.5h-59q3 59 31 88t67 29q12 -1 17 -2l15 -3l58 -18q11 -3 16.5 -3.5t14.5 -0.5q15 1 26 11t14 29h61z" />
    <glyph glyph-name="trademark" unicode="&#x2122;" horiz-adv-x="735" 
d="M292 602h-94v-277h-67v277h-94v68h255v-68zM697 325h-72v187l-96 -187l-99 187v-187h-71v345h71l99 -189l96 189h72v-345z" />
    <glyph glyph-name="scaron" unicode="&#x161;" 
d="M461 664l-98 -137h-112l-97 137h78l75 -75l75 75h79zM526 148q0 -75 -53.5 -116t-170.5 -41q-103 0 -228 55l59 116q79 -42 175 -43q44 1 65 6t20 25q0 20 -19.5 27t-76.5 12q-96 6 -146 42.5t-51 102.5q-2 74 53.5 120.5t147.5 46.5q104 0 211 -52l-53 -115
q-83 36 -153 40q-37 0 -54.5 -8t-17.5 -24q1 -16 17 -21t64 -8q110 -9 160.5 -55.5t50.5 -109.5z" />
    <glyph glyph-name="guilsinglright" unicode="&#x203a;" horiz-adv-x="275" 
d="M138 501l117 -205l-117 -205h-117l116 205l-116 205h117z" />
    <glyph glyph-name="oe" unicode="&#x153;" horiz-adv-x="915" 
d="M525 244q0 -109 -64 -181t-168 -72q-95 0 -160.5 74t-65.5 179q0 109 65.5 183t160.5 74q95 -1 163.5 -74.5t68.5 -182.5zM398 244q0 54 -24 91t-78 39q-52 -1 -77.5 -38.5t-24.5 -91.5q0 -52 27.5 -87.5t75.5 -36.5q48 1 74.5 34.5t26.5 89.5zM848 202h-320
q9 -42 38 -66t69 -23q45 0 80 35l89 -70q-67 -87 -170 -87q-104 0 -170 71.5t-66 183.5q0 71 30 131t85 92t115 32q61 0 113.5 -36t79.5 -95.5t27 -167.5zM716 313q-7 32 -32 50t-56 19q-31 -1 -56.5 -19t-32.5 -50h177z" />
    <glyph glyph-name="zcaron" unicode="&#x17e;" 
d="M536 0h-456v118l239 239h-225v132h442v-110l-247 -247h247v-132zM461 664l-98 -137h-112l-97 137h78l75 -75l75 75h79z" />
    <glyph glyph-name="Ydieresis" unicode="&#x178;" horiz-adv-x="775" 
d="M341 776q0 -27 -20 -46.5t-48 -19.5q-27 0 -46.5 20t-19.5 46q0 28 19.5 48t46.5 20q28 0 48 -20t20 -48zM568 776q0 -27 -20 -46.5t-48 -19.5q-27 0 -46.5 20t-19.5 46q0 28 19.5 48t46.5 20q28 0 48 -20t20 -48zM727 672l-270 -399v-273h-134v273l-275 399h160
l185 -258l174 258h160z" />
    <glyph glyph-name="exclamdown" unicode="&#xa1;" horiz-adv-x="255" 
d="M200 598q0 -30 -21.5 -51.5t-51.5 -21.5t-51.5 21.5t-21.5 51.5t21.5 51.5t51.5 21.5q31 0 52 -21.5t21 -51.5zM54 -12v243l29 229h86l31 -229v-243h-146z" />
    <glyph glyph-name="cent.001" unicode="&#xa2;" 
d="M529 174q-71 -98 -191 -98q-105 0 -178 73t-74 182q1 109 74 182t178 73q120 0 191 -97l-92 -71q-34 41 -99 41q-48 0 -84 -37t-36 -90q0 -54 36 -90.5t84 -36.5q52 1 89 40zM293 0v670h85v-670h-85z" />
    <glyph glyph-name="sterling" unicode="&#xa3;" horiz-adv-x="675" 
d="M134 430h50v30q-1 92 54.5 150.5t156.5 59.5q136 -3 195 -111l-116 -58q-28 43 -83 43q-41 0 -62 -26.5t-20 -52.5v-35h140v-122h-140v-43q-2 -84 -47 -134h328v-131h-505v131h10q83 47 89 145v32h-50v122z" />
    <glyph glyph-name="currency" unicode="&#xa4;" horiz-adv-x="555" 
d="M105 469l-68 67l56 58l68 -68q52 35 116 35t116 -35l67 68l57 -58l-68 -67q35 -53 35 -115q0 -61 -35 -115l68 -66l-57 -58l-67 68q-52 -36 -116 -36t-116 36l-68 -68l-56 58l68 66q-35 54 -35 115q0 62 35 115zM150 354q0 -52 37 -89t89 -37q53 0 90 37t37 89
q0 53 -37 90t-90 37q-52 0 -89 -37t-37 -90z" />
    <glyph glyph-name="yen" unicode="&#xa5;" horiz-adv-x="775" 
d="M731 153h-687v120h687v-120zM727 672l-270 -399v-273h-134v273l-275 399h160l185 -258l174 258h160z" />
    <glyph glyph-name="brokenbar" unicode="&#xa6;" horiz-adv-x="205" 
d="M128 728v-386h-50v386h50zM128 176v-386h-50v386h50z" />
    <glyph glyph-name="section" unicode="&#xa7;" 
d="M530 130q0 -75 -53.5 -116t-170.5 -41q-103 0 -228 55l59 116q79 -42 175 -43q44 1 65 6t20 25q0 20 -19.5 27t-76.5 12q-96 6 -146 42.5t-51 102.5q5 63 63 93q-58 29 -56 105q-2 74 53.5 120.5t147.5 46.5q104 0 211 -52l-53 -115q-83 36 -153 40q-37 0 -54.5 -8
t-17.5 -24q1 -16 17 -21t64 -8q110 -9 160.5 -55.5t50.5 -109.5q0 -67 -61 -95q54 -40 54 -103zM382 279q26 14 28 42q-5 30 -35 39t-113 27q-27 -14 -30 -43q1 -26 30.5 -37t119.5 -28z" />
    <glyph glyph-name="dieresis" unicode="&#xa8;" horiz-adv-x="455" 
d="M408 602q0 -27 -20 -46.5t-48 -19.5q-27 0 -46.5 20t-19.5 46q0 28 19.5 48t46.5 20q28 0 48 -20t20 -48zM181 602q0 -27 -20 -46.5t-48 -19.5q-27 0 -46.5 20t-19.5 46q0 28 19.5 48t46.5 20q28 0 48 -20t20 -48z" />
    <glyph glyph-name="exclamdown.001" unicode="&#xa9;" horiz-adv-x="745" 
d="M372 681q91 0 172.5 -46t124.5 -125q47 -82 47 -173t-46.5 -172.5t-127.5 -126t-170 -44.5q-92 0 -173 46.5t-126 127t-45 169.5q0 93 47.5 175t129 125.5t167.5 43.5zM372 625q-76 0 -143 -39t-105 -105q-38 -69 -38 -144q0 -77 39 -144t106.5 -105t140.5 -38
q76 0 143.5 39.5t105 106.5t37.5 141q0 78 -39.5 146t-107.5 105t-139 37zM482 282l56 -17q-14 -59 -58.5 -92t-107.5 -33q-85 0 -134 56q-46 53 -46 140q0 125 88 172q41 22 96 22q124 0 155 -107l-54 -13q-28 70 -103 70q-59 0 -91 -44q-29 -39 -29 -101q0 -61 27 -99
q30 -42 89 -42q41 0 72 24t40 64z" />
    <glyph glyph-name="cent" unicode="&#xaa;" horiz-adv-x="425" 
d="M351 351h-79v11q-39 -16 -82 -16q-52 0 -84 30.5t-32 78.5q0 50 35.5 83t90.5 33q36 0 73 -8q1 18 -13 28.5t-44 10.5q-44 0 -84 -22l-34 67q63 34 118 34q61 0 98 -29.5t37 -90.5v-210zM272 439v49q-39 8 -72 8q-21 0 -34.5 -11t-13.5 -26q0 -14 16 -25.5t40 -11.5
q35 0 64 17z" />
    <glyph glyph-name="guillemotleft" unicode="&#xab;" horiz-adv-x="515" 
d="M261 501l-116 -205l116 -205h-117l-117 205l117 205h117zM488 501l-116 -205l116 -205h-117l-117 205l117 205h117z" />
    <glyph glyph-name="logicalnot" unicode="&#xac;" horiz-adv-x="555" 
d="M527 120h-120v162h-380v120h500v-282z" />
    <glyph glyph-name="registered" unicode="&#xae;" horiz-adv-x="705" 
d="M353 681q89 0 167.5 -44.5t120.5 -121.5q44 -80 44 -167q0 -89 -44.5 -168t-122.5 -122t-165 -43q-90 0 -168 45t-121.5 123.5t-43.5 164.5q0 90 46 169t124.5 121.5t162.5 42.5zM353 620q-72 0 -135.5 -36.5t-99.5 -99.5q-35 -67 -35 -137q0 -74 36.5 -138.5t100.5 -100
t133 -35.5q73 0 137 37t100.5 101.5t36.5 135.5q0 73 -38.5 138.5t-102.5 100t-133 34.5zM207 164v358h123q51 0 75 -5q41 -9 62 -39q16 -25 16 -53q0 -42 -26 -71q-22 -29 -66 -34l117 -156h-64l-119 152h-61v-152h-57zM264 366h71q39 -1 56 8q33 12 31 46q0 34 -34 48
q-15 6 -58 6h-66v-108z" />
    <glyph glyph-name="macron" unicode="&#xaf;" horiz-adv-x="355" 
d="M17 649h320v-53h-320v53z" />
    <glyph glyph-name="degree" unicode="&#xb0;" horiz-adv-x="375" 
d="M52 535q0 56 38 95q39 40 95 40q58 0 98 -39t40 -96t-40 -96q-41 -40 -98 -40q-56 0 -94 39q-39 40 -39 97zM103 535q0 -35 24 -59q25 -24 58 -24q35 0 59 24q25 25 25 59t-24 58q-25 24 -60 24q-33 0 -57 -24q-25 -24 -25 -58z" />
    <glyph glyph-name="plusminus" unicode="&#xb1;" horiz-adv-x="505" 
d="M470 29h-435v137h435v-137zM470 386h-153v-152h-131v152h-151v137h151v147h131v-147h153v-137z" />
    <glyph glyph-name="twosuperior" unicode="&#xb2;" horiz-adv-x="465" 
d="M398 281h-331q20 156 191 231q36 15 47.5 25.5t11.5 25.5q0 17 -22 28.5t-58 11.5q-58 -3 -99 -40l-64 52q71 66 166 66q82 0 120 -34t38 -81q1 -35 -24 -68.5t-85 -53.5q-77 -34 -111 -84h220v-79z" />
    <glyph glyph-name="threesuperior" unicode="&#xb3;" horiz-adv-x="465" 
d="M400 401q0 -54 -44 -87.5t-113 -33.5q-107 0 -177 86l63 46q48 -53 118 -54q33 0 53 12t20 34q1 21 -15 37t-41 16h-28v78h28q19 2 27 9.5t8 22.5q0 17 -18 27.5t-49 10.5q-50 0 -89 -33l-58 45q65 64 151 64q63 0 103.5 -31t40.5 -81q0 -54 -35 -77q54 -30 55 -91z" />
    <glyph glyph-name="acute" unicode="&#xb4;" horiz-adv-x="245" 
d="M23 533l69 137h130l-122 -137h-77z" />
    <glyph glyph-name="mu" unicode="&#xb5;" 
d="M86 489h132v-294q2 -34 26.5 -57t59.5 -25q38 1 62.5 24t27.5 56v296h134v-489l-134 -67v97q-49 -42 -93 -40q-58 0 -83 38v-117l-132 -66v644z" />
    <glyph glyph-name="paragraph" unicode="&#xb6;" horiz-adv-x="375" 
d="M142 0v375q-55 3 -89 41q-34 39 -34 104q0 74 41 114q38 36 103 36h194v-62h-45v-608h-52v608h-68v-608h-50z" />
    <glyph glyph-name="periodcentered" unicode="&#xb7;" horiz-adv-x="235" 
d="M184 432q0 -27 -20 -46.5t-48 -19.5q-27 0 -46.5 19.5t-19.5 46.5q0 28 19.5 48t46.5 20q28 0 48 -20t20 -48z" />
    <glyph glyph-name="cedilla" unicode="&#xb8;" horiz-adv-x="295" 
d="M28 -176v54q33 -9 63.5 -13.5t53.5 -4.5q19 0 28 7.5t9 23.5q0 12 -12 18t-40 6h-14h-10v85h50v-32h9q47 0 74 -20t27 -58q0 -43 -29 -65t-84 -22q-25 0 -56 5.5t-69 15.5z" />
    <glyph glyph-name="onesuperior" unicode="&#xb9;" horiz-adv-x="255" 
d="M188 281h-78v292h-42v74q35 5 54 34h66v-400z" />
    <glyph glyph-name="ordmasculine" unicode="&#xba;" horiz-adv-x="435" 
d="M371 512q0 -73 -43 -120t-113 -47q-64 0 -107.5 48.5t-43.5 118.5q0 72 43.5 120.5t107.5 48.5q68 0 112 -48.5t44 -120.5zM286 512q0 35 -16.5 60t-52.5 26q-36 -1 -53.5 -26t-15.5 -60q0 -34 18 -58t51 -25q33 1 51 23.5t18 59.5z" />
    <glyph glyph-name="guillemotright" unicode="&#xbb;" horiz-adv-x="515" 
d="M371 501l117 -205l-117 -205h-117l116 205l-116 205h117zM144 501l117 -205l-117 -205h-117l116 205l-116 205h117z" />
    <glyph glyph-name="onequarter" unicode="&#xbc;" horiz-adv-x="1175" 
d="M1057 96h-65v-96h-84v96h-252v83l254 256h82v-258h65v-81zM908 177v141l-140 -141h140zM282 0l470 681h63l-465 -681h-68zM250 246h-83v320h-50v82q42 4 62 33h71v-435z" />
    <glyph glyph-name="onehalf" unicode="&#xbd;" horiz-adv-x="1235" 
d="M1141 0h-357q21 170 206 251q38 17 51 28t13 27q0 20 -24 32.5t-63 12.5q-63 -4 -106 -44l-70 56q78 72 179 72q89 0 130 -37t41 -88q0 -39 -30 -74t-85 -60q-81 -39 -113 -91h228v-85zM226 246h-83v320h-50v82q42 4 62 33h71v-435zM259 0l470 681h63l-465 -681h-68z" />
    <glyph glyph-name="threequarters" unicode="&#xbe;" horiz-adv-x="1235" 
d="M1138 96h-65v-96h-84v96h-252v83l254 256h82v-258h65v-81zM989 177v141l-140 -141h140zM453 378q0 -59 -47 -95.5t-121 -36.5q-112 0 -188 93l68 50q50 -57 125 -58q35 0 56 13t21 37q1 23 -16 40.5t-43 17.5h-31v84h30q21 1 29.5 9.5t7.5 24.5q0 18 -19 29.5t-52 11.5
q-53 0 -94 -36l-62 50q68 69 160 69q68 0 111 -33.5t43 -88.5q0 -58 -38 -83q58 -32 60 -98zM363 0l470 681h63l-465 -681h-68z" />
    <glyph glyph-name="questiondown" unicode="&#xbf;" horiz-adv-x="595" 
d="M207 608q0 30 21 51.5t52 21.5q30 0 51.5 -21.5t21.5 -51.5t-21.5 -51.5t-51.5 -21.5t-51.5 21.5t-21.5 51.5zM51 173q0 43 24 85t46 65q28 33 53.5 74.5t32.5 80.5h139q-5 -42 -31.5 -97t-74.5 -108q-25 -27 -40.5 -50t-14.5 -43q1 -25 23 -42t66 -17q97 2 168 79
l101 -77q-112 -135 -267 -135q-100 0 -162 54t-63 131z" />
    <glyph glyph-name="Agrave" unicode="&#xc0;" horiz-adv-x="775" 
d="M727 0h-143l-64 157h-265l-64 -157h-143l270 672h139zM466 291l-75 188l-82 -188h157zM410 699l-122 137h130l69 -137h-77z" />
    <glyph glyph-name="Aacute" unicode="&#xc1;" horiz-adv-x="775" 
d="M727 0h-143l-64 157h-265l-64 -157h-143l270 672h139zM466 291l-75 188l-82 -188h157zM288 699l69 137h130l-122 -137h-77z" />
    <glyph glyph-name="Acircumflex" unicode="&#xc2;" horiz-adv-x="775" 
d="M462 699l-75 75l-75 -75h-78l97 137h112l98 -137h-79zM727 0h-143l-64 157h-265l-64 -157h-143l270 672h139zM466 291l-75 188l-82 -188h157z" />
    <glyph glyph-name="Atilde" unicode="&#xc3;" horiz-adv-x="775" 
d="M547 823q-3 -61 -35.5 -90.5t-72.5 -28.5q-12 1 -18 2t-16 4l-54 18q-8 2 -13.5 3t-16.5 1q-14 0 -24.5 -9.5t-17.5 -29.5h-52q3 59 31 88t67 29q12 -1 17 -2l15 -3l58 -19q10 -2 15 -2.5t16 -0.5q15 1 26 11t14 29h61zM727 0h-143l-64 157h-265l-64 -157h-143l270 672
h139zM466 291l-75 188l-82 -188h157z" />
    <glyph glyph-name="Adieresis" unicode="&#xc4;" horiz-adv-x="775" 
d="M727 0h-143l-64 157h-265l-64 -157h-143l270 672h139zM466 291l-75 188l-82 -188h157zM341 776q0 -27 -20 -46.5t-48 -19.5q-27 0 -46.5 20t-19.5 46q0 28 19.5 48t46.5 20q28 0 48 -20t20 -48zM568 776q0 -27 -20 -46.5t-48 -19.5q-27 0 -46.5 20t-19.5 46q0 28 19.5 48
t46.5 20q28 0 48 -20t20 -48z" />
    <glyph glyph-name="Aring" unicode="&#xc5;" horiz-adv-x="775" 
d="M727 0h-143l-64 157h-265l-64 -157h-143l270 672h139zM466 291l-75 188l-82 -188h157zM485 769h-36q1 25 -17.5 43t-44.5 18t-44.5 -17.5t-18.5 -43.5q0 -25 18.5 -43.5t44.5 -18.5t44.5 18.5t17.5 43.5h36q0 -40 -29 -69t-69 -29t-68.5 29t-28.5 69q0 41 28 69t69 28
q39 0 68.5 -28.5t29.5 -68.5z" />
    <glyph glyph-name="AE" unicode="&#xc6;" horiz-adv-x="1105" 
d="M526 291v-134h-232l-103 -157h-143l416 672h551v-134h-357v-110h202v-134h-202v-160h366v-134h-498v527l-150 -236h150z" />
    <glyph glyph-name="Ccedilla" unicode="&#xc7;" horiz-adv-x="695" 
d="M619 136q-47 -82 -109.5 -115t-142.5 -33q-139 0 -215 100t-76 248q0 155 82 250t214 95q80 0 146 -38.5t101 -106.5l-118 -64q-44 76 -134 76q-72 0 -114.5 -57.5t-42.5 -154.5q0 -99 42.5 -156.5t114.5 -57.5q88 0 134 78zM263 -176v54q33 -9 63.5 -13.5t53.5 -4.5
q19 0 28 7.5t9 23.5q0 12 -12 18t-40 6h-14h-10v85h50v-32h9q47 0 74 -20t27 -58q0 -43 -29 -65t-84 -22q-25 0 -56 5.5t-69 15.5z" />
    <glyph glyph-name="Egrave" unicode="&#xc8;" horiz-adv-x="675" 
d="M360 699l-122 137h130l69 -137h-77zM586 0h-498v672h489v-134h-357v-110h202v-134h-202v-160h366v-134z" />
    <glyph glyph-name="Eacute" unicode="&#xc9;" horiz-adv-x="675" 
d="M238 699l69 137h130l-122 -137h-77zM586 0h-498v672h489v-134h-357v-110h202v-134h-202v-160h366v-134z" />
    <glyph glyph-name="Ecircumflex" unicode="&#xca;" horiz-adv-x="675" 
d="M412 699l-75 75l-75 -75h-78l97 137h112l98 -137h-79zM586 0h-498v672h489v-134h-357v-110h202v-134h-202v-160h366v-134z" />
    <glyph glyph-name="Edieresis" unicode="&#xcb;" horiz-adv-x="675" 
d="M291 776q0 -27 -20 -46.5t-48 -19.5q-27 0 -46.5 20t-19.5 46q0 28 19.5 48t46.5 20q28 0 48 -20t20 -48zM518 776q0 -27 -20 -46.5t-48 -19.5q-27 0 -46.5 20t-19.5 46q0 28 19.5 48t46.5 20q28 0 48 -20t20 -48zM586 0h-498v672h489v-134h-357v-110h202v-134h-202v-160
h366v-134z" />
    <glyph glyph-name="Igrave" unicode="&#xcc;" horiz-adv-x="345" 
d="M195 699l-122 137h130l69 -137h-77zM239 0h-134v672h134v-672z" />
    <glyph glyph-name="Iacute" unicode="&#xcd;" horiz-adv-x="345" 
d="M73 699l69 137h130l-122 -137h-77zM239 0h-134v672h134v-672z" />
    <glyph glyph-name="Icircumflex" unicode="&#xce;" horiz-adv-x="345" 
d="M247 699l-75 75l-75 -75h-78l97 137h112l98 -137h-79zM239 0h-134v672h134v-672z" />
    <glyph glyph-name="Idieresis" unicode="&#xcf;" horiz-adv-x="345" 
d="M126 776q0 -27 -20 -46.5t-48 -19.5q-27 0 -46.5 20t-19.5 46q0 28 19.5 48t46.5 20q28 0 48 -20t20 -48zM353 776q0 -27 -20 -46.5t-48 -19.5q-27 0 -46.5 20t-19.5 46q0 28 19.5 48t46.5 20q28 0 48 -20t20 -48zM239 0h-134v672h134v-672z" />
    <glyph glyph-name="Eth" unicode="&#xd0;" horiz-adv-x="755" 
d="M684 336q0 -153 -90.5 -244.5t-240.5 -91.5h-209v672h209q151 0 241 -92t90 -244zM553 336q0 95 -51.5 148.5t-141.5 53.5h-84v-404h84q90 0 141.5 53.5t51.5 148.5zM384 274h-313v137h313v-137z" />
    <glyph glyph-name="Ntilde" unicode="&#xd1;" horiz-adv-x="715" 
d="M518 823q-3 -61 -35.5 -90.5t-72.5 -28.5q-12 1 -18 2t-16 4l-54 18q-8 2 -13.5 3t-16.5 1q-14 0 -24.5 -9.5t-17.5 -29.5h-52q3 59 31 88t67 29q12 -1 17 -2l15 -3l58 -19q10 -2 15 -2.5t16 -0.5q15 1 26 11t14 29h61zM628 0h-115l-293 430v-430h-132v672h132l277 -411
v411h131v-672z" />
    <glyph glyph-name="Ograve" unicode="&#xd2;" horiz-adv-x="695" 
d="M628 336q0 -160 -76 -254t-203 -94q-142 0 -217 108q-65 94 -65 240q0 159 76 252t206 93q122 0 200.5 -95.5t78.5 -249.5zM497 338q1 100 -36.5 155t-111.5 55q-69 0 -108.5 -53t-39.5 -159q0 -102 38.5 -158t109.5 -56q68 0 108 58.5t40 157.5zM370 699l-122 137h130
l69 -137h-77z" />
    <glyph glyph-name="Oacute" unicode="&#xd3;" horiz-adv-x="695" 
d="M248 699l69 137h130l-122 -137h-77zM628 336q0 -160 -76 -254t-203 -94q-142 0 -217 108q-65 94 -65 240q0 159 76 252t206 93q122 0 200.5 -95.5t78.5 -249.5zM497 338q1 100 -36.5 155t-111.5 55q-69 0 -108.5 -53t-39.5 -159q0 -102 38.5 -158t109.5 -56
q68 0 108 58.5t40 157.5z" />
    <glyph glyph-name="Ocircumflex" unicode="&#xd4;" horiz-adv-x="695" 
d="M422 699l-75 75l-75 -75h-78l97 137h112l98 -137h-79zM628 336q0 -160 -76 -254t-203 -94q-142 0 -217 108q-65 94 -65 240q0 159 76 252t206 93q122 0 200.5 -95.5t78.5 -249.5zM497 338q1 100 -36.5 155t-111.5 55q-69 0 -108.5 -53t-39.5 -159q0 -102 38.5 -158
t109.5 -56q68 0 108 58.5t40 157.5z" />
    <glyph glyph-name="Otilde" unicode="&#xd5;" horiz-adv-x="695" 
d="M508 823q-3 -61 -35.5 -90.5t-72.5 -28.5q-12 1 -18 2t-16 4l-54 18q-8 2 -13.5 3t-16.5 1q-14 0 -24.5 -9.5t-17.5 -29.5h-52q3 59 31 88t67 29q12 -1 17 -2l15 -3l58 -19q10 -2 15 -2.5t16 -0.5q15 1 26 11t14 29h61zM628 336q0 -160 -76 -254t-203 -94
q-142 0 -217 108q-65 94 -65 240q0 159 76 252t206 93q122 0 200.5 -95.5t78.5 -249.5zM497 338q1 100 -36.5 155t-111.5 55q-69 0 -108.5 -53t-39.5 -159q0 -102 38.5 -158t109.5 -56q68 0 108 58.5t40 157.5z" />
    <glyph glyph-name="Odieresis" unicode="&#xd6;" horiz-adv-x="695" 
d="M301 776q0 -27 -20 -46.5t-48 -19.5q-27 0 -46.5 20t-19.5 46q0 28 19.5 48t46.5 20q28 0 48 -20t20 -48zM528 776q0 -27 -20 -46.5t-48 -19.5q-27 0 -46.5 20t-19.5 46q0 28 19.5 48t46.5 20q28 0 48 -20t20 -48zM628 336q0 -160 -76 -254t-203 -94q-142 0 -217 108
q-65 94 -65 240q0 159 76 252t206 93q122 0 200.5 -95.5t78.5 -249.5zM497 338q1 100 -36.5 155t-111.5 55q-69 0 -108.5 -53t-39.5 -159q0 -102 38.5 -158t109.5 -56q68 0 108 58.5t40 157.5z" />
    <glyph glyph-name="multiply" unicode="&#xd7;" horiz-adv-x="584" 
d="M79 200l153 154l-153 153l60 59l153 -153l153 153l58 -59l-152 -153l153 -153l-59 -60l-153 153l-154 -153z" />
    <glyph glyph-name="Oslash" unicode="&#xd8;" horiz-adv-x="695" 
d="M630 336q0 -160 -76 -254t-203 -94q-142 0 -217 108q-65 94 -65 240q0 159 76 252t206 93q122 0 200.5 -95.5t78.5 -249.5zM499 338q1 100 -36.5 155t-111.5 55q-69 0 -108.5 -53t-39.5 -159q0 -102 38.5 -158t109.5 -56q68 0 108 58.5t40 157.5zM651 681l-502 -693h-106
l494 693h114z" />
    <glyph glyph-name="Ugrave" unicode="&#xd9;" horiz-adv-x="725" 
d="M385 699l-122 137h130l69 -137h-77zM633 275q0 -89 -35 -153q-33 -60 -95.5 -97t-134.5 -37q-110 0 -192.5 78.5t-82.5 184.5v421h132v-416q0 -54 42.5 -94t98.5 -40q82 0 119 68q17 30 17 85v397h131v-397z" />
    <glyph glyph-name="Uacute" unicode="&#xda;" horiz-adv-x="725" 
d="M263 699l69 137h130l-122 -137h-77zM633 275q0 -89 -35 -153q-33 -60 -95.5 -97t-134.5 -37q-110 0 -192.5 78.5t-82.5 184.5v421h132v-416q0 -54 42.5 -94t98.5 -40q82 0 119 68q17 30 17 85v397h131v-397z" />
    <glyph glyph-name="Ucircumflex" unicode="&#xdb;" horiz-adv-x="725" 
d="M437 699l-75 75l-75 -75h-78l97 137h112l98 -137h-79zM633 275q0 -89 -35 -153q-33 -60 -95.5 -97t-134.5 -37q-110 0 -192.5 78.5t-82.5 184.5v421h132v-416q0 -54 42.5 -94t98.5 -40q82 0 119 68q17 30 17 85v397h131v-397z" />
    <glyph glyph-name="Udieresis" unicode="&#xdc;" horiz-adv-x="725" 
d="M316 776q0 -27 -20 -46.5t-48 -19.5q-27 0 -46.5 20t-19.5 46q0 28 19.5 48t46.5 20q28 0 48 -20t20 -48zM543 776q0 -27 -20 -46.5t-48 -19.5q-27 0 -46.5 20t-19.5 46q0 28 19.5 48t46.5 20q28 0 48 -20t20 -48zM633 275q0 -89 -35 -153q-33 -60 -95.5 -97t-134.5 -37
q-110 0 -192.5 78.5t-82.5 184.5v421h132v-416q0 -54 42.5 -94t98.5 -40q82 0 119 68q17 30 17 85v397h131v-397z" />
    <glyph glyph-name="Yacute" unicode="&#xdd;" horiz-adv-x="775" 
d="M727 672l-270 -399v-273h-134v273l-275 399h160l185 -258l174 258h160zM288 699l69 137h130l-122 -137h-77z" />
    <glyph glyph-name="Thorn" unicode="&#xde;" horiz-adv-x="715" 
d="M628 351q0 -56 -27.5 -104.5t-75.5 -76.5t-122 -28h-183v-142h-132v670h132v-107h176q71 0 113 -21q57 -26 88 -77t31 -114zM497 351q0 35 -23 56.5t-62 21.5h-192v-153h192q37 0 61 21.5t24 53.5z" />
    <glyph glyph-name="germandbls" unicode="&#xdf;" horiz-adv-x="675" 
d="M593 197q0 -93 -71.5 -151t-184.5 -58h-67v134h74q54 0 85.5 21t31.5 59q2 37 -23 64.5t-66 27.5h-102v134h101q31 2 44.5 15.5t12.5 38.5q0 30 -29.5 48t-78.5 18q-46 -1 -73 -32.5t-27 -77.5v-524l-138 -69v597q0 103 67 170.5t176 68.5q104 0 169.5 -54t65.5 -141
q0 -93 -58 -133q88 -50 91 -156z" />
    <glyph glyph-name="agrave" unicode="&#xe0;" 
d="M330 523l-122 137h130l69 -137h-77zM528 0h-127v16q-59 -23 -130 -23q-81 0 -133 46t-52 118q0 76 57.5 126.5t144.5 50.5q59 0 115 -13q2 27 -20 43t-69 17q-70 0 -136 -36l-52 104q100 52 188 52q96 0 155 -45t59 -137v-319zM401 134v73q-60 12 -113 12
q-32 0 -53.5 -16t-21.5 -39q0 -22 25.5 -39t61.5 -17q55 0 101 26z" />
    <glyph glyph-name="aacute" unicode="&#xe1;" 
d="M528 0h-127v16q-59 -23 -130 -23q-81 0 -133 46t-52 118q0 76 57.5 126.5t144.5 50.5q59 0 115 -13q2 27 -20 43t-69 17q-70 0 -136 -36l-52 104q100 52 188 52q96 0 155 -45t59 -137v-319zM401 134v73q-60 12 -113 12q-32 0 -53.5 -16t-21.5 -39q0 -22 25.5 -39
t61.5 -17q55 0 101 26zM208 523l69 137h130l-122 -137h-77z" />
    <glyph glyph-name="acircumflex" unicode="&#xe2;" 
d="M528 0h-127v16q-59 -23 -130 -23q-81 0 -133 46t-52 118q0 76 57.5 126.5t144.5 50.5q59 0 115 -13q2 27 -20 43t-69 17q-70 0 -136 -36l-52 104q100 52 188 52q96 0 155 -45t59 -137v-319zM401 134v73q-60 12 -113 12q-32 0 -53.5 -16t-21.5 -39q0 -22 25.5 -39
t61.5 -17q55 0 101 26zM382 527l-75 75l-75 -75h-78l97 137h112l98 -137h-79z" />
    <glyph glyph-name="atilde" unicode="&#xe3;" 
d="M467 662q-3 -61 -35.5 -90.5t-72.5 -28.5q-12 1 -18 2t-16 4l-54 18q-8 2 -13.5 3t-16.5 1q-14 0 -24.5 -9.5t-17.5 -29.5h-52q3 59 31 88t67 29q12 -1 17 -2l15 -3l58 -19q10 -2 15 -2.5t16 -0.5q15 1 26 11t14 29h61zM528 0h-127v16q-59 -23 -130 -23q-81 0 -133 46
t-52 118q0 76 57.5 126.5t144.5 50.5q59 0 115 -13q2 27 -20 43t-69 17q-70 0 -136 -36l-52 104q100 52 188 52q96 0 155 -45t59 -137v-319zM401 134v73q-60 12 -113 12q-32 0 -53.5 -16t-21.5 -39q0 -22 25.5 -39t61.5 -17q55 0 101 26z" />
    <glyph glyph-name="adieresis" unicode="&#xe4;" 
d="M261 592q0 -27 -20 -46.5t-48 -19.5q-27 0 -46.5 20t-19.5 46q0 28 19.5 48t46.5 20q28 0 48 -20t20 -48zM488 592q0 -27 -20 -46.5t-48 -19.5q-27 0 -46.5 20t-19.5 46q0 28 19.5 48t46.5 20q28 0 48 -20t20 -48zM528 0h-127v16q-59 -23 -130 -23q-81 0 -133 46t-52 118
q0 76 57.5 126.5t144.5 50.5q59 0 115 -13q2 27 -20 43t-69 17q-70 0 -136 -36l-52 104q100 52 188 52q96 0 155 -45t59 -137v-319zM401 134v73q-60 12 -113 12q-32 0 -53.5 -16t-21.5 -39q0 -22 25.5 -39t61.5 -17q55 0 101 26z" />
    <glyph glyph-name="aring" unicode="&#xe5;" 
d="M405 620h-36q1 25 -17.5 43t-44.5 18t-44.5 -17.5t-18.5 -43.5q0 -25 18.5 -43.5t44.5 -18.5t44.5 18.5t17.5 43.5h36q0 -40 -29 -69t-69 -29t-68.5 29t-28.5 69q0 41 28 69t69 28q39 0 68.5 -28.5t29.5 -68.5zM528 0h-127v16q-59 -23 -130 -23q-81 0 -133 46t-52 118
q0 76 57.5 126.5t144.5 50.5q59 0 115 -13q2 27 -20 43t-69 17q-70 0 -136 -36l-52 104q100 52 188 52q96 0 155 -45t59 -137v-319zM401 134v73q-60 12 -113 12q-32 0 -53.5 -16t-21.5 -39q0 -22 25.5 -39t61.5 -17q55 0 101 26z" />
    <glyph glyph-name="ae" unicode="&#xe6;" horiz-adv-x="915" 
d="M401 134v73q-60 12 -113 12q-32 0 -53.5 -16t-21.5 -39q0 -22 25.5 -39t61.5 -17q55 0 101 26zM848 202h-320q9 -42 38 -66t69 -23q45 0 80 35l89 -70q-67 -87 -170 -87q-116 0 -169 58q-73 -57 -195 -58q-80 2 -132 48t-52 118q0 76 57.5 126.5t144.5 50.5q59 0 115 -13
q2 27 -20 43t-69 17q-70 0 -136 -36l-52 104q100 52 188 52q114 -1 166 -64q51 62 148 64q61 0 113.5 -36t79.5 -95.5t27 -167.5zM716 313q-7 32 -32 50t-56 19q-31 -1 -56.5 -19t-32.5 -50h177z" />
    <glyph glyph-name="ccedilla" unicode="&#xe7;" 
d="M529 89q-71 -98 -191 -98q-105 0 -178 73t-74 182q1 109 74 182t178 73q120 0 191 -97l-92 -71q-34 41 -99 41q-48 0 -84 -37t-36 -90q0 -54 36 -90.5t84 -36.5q52 1 89 40zM234 -176v54q33 -9 63.5 -13.5t53.5 -4.5q19 0 28 7.5t9 23.5q0 12 -12 18t-40 6h-14h-10v85h50
v-32h9q47 0 74 -20t27 -58q0 -43 -29 -65t-84 -22q-25 0 -56 5.5t-69 15.5z" />
    <glyph glyph-name="egrave" unicode="&#xe8;" 
d="M532 202h-320q9 -42 38 -66t69 -23q45 0 80 35l89 -70q-67 -87 -170 -87q-104 0 -170 71.5t-66 183.5q0 71 30 131t85 92t115 32q61 0 113.5 -36t79.5 -95.5t27 -167.5zM400 313q-7 32 -32 50t-56 19q-31 -1 -56.5 -19t-32.5 -50h177zM330 523l-122 137h130l69 -137h-77z
" />
    <glyph glyph-name="eacute" unicode="&#xe9;" 
d="M532 202h-320q9 -42 38 -66t69 -23q45 0 80 35l89 -70q-67 -87 -170 -87q-104 0 -170 71.5t-66 183.5q0 71 30 131t85 92t115 32q61 0 113.5 -36t79.5 -95.5t27 -167.5zM400 313q-7 32 -32 50t-56 19q-31 -1 -56.5 -19t-32.5 -50h177zM208 523l69 137h130l-122 -137h-77z
" />
    <glyph glyph-name="ecircumflex" unicode="&#xea;" 
d="M532 202h-320q9 -42 38 -66t69 -23q45 0 80 35l89 -70q-67 -87 -170 -87q-104 0 -170 71.5t-66 183.5q0 71 30 131t85 92t115 32q61 0 113.5 -36t79.5 -95.5t27 -167.5zM400 313q-7 32 -32 50t-56 19q-31 -1 -56.5 -19t-32.5 -50h177zM382 527l-75 75l-75 -75h-78l97 137
h112l98 -137h-79z" />
    <glyph glyph-name="edieresis" unicode="&#xeb;" 
d="M532 202h-320q9 -42 38 -66t69 -23q45 0 80 35l89 -70q-67 -87 -170 -87q-104 0 -170 71.5t-66 183.5q0 71 30 131t85 92t115 32q61 0 113.5 -36t79.5 -95.5t27 -167.5zM400 313q-7 32 -32 50t-56 19q-31 -1 -56.5 -19t-32.5 -50h177zM261 592q0 -27 -20 -46.5t-48 -19.5
q-27 0 -46.5 20t-19.5 46q0 28 19.5 48t46.5 20q28 0 48 -20t20 -48zM488 592q0 -27 -20 -46.5t-48 -19.5q-27 0 -46.5 20t-19.5 46q0 28 19.5 48t46.5 20q28 0 48 -20t20 -48z" />
    <glyph glyph-name="igrave" unicode="&#xec;" horiz-adv-x="405" 
d="M225 523l-122 137h130l69 -137h-77zM269 0h-134v489h134v-489z" />
    <glyph glyph-name="iacute" unicode="&#xed;" horiz-adv-x="405" 
d="M103 523l69 137h130l-122 -137h-77zM269 0h-134v489h134v-489z" />
    <glyph glyph-name="icircumflex" unicode="&#xee;" horiz-adv-x="405" 
d="M277 527l-75 75l-75 -75h-78l97 137h112l98 -137h-79zM269 0h-134v489h134v-489z" />
    <glyph glyph-name="idieresis" unicode="&#xef;" horiz-adv-x="405" 
d="M156 592q0 -27 -20 -46.5t-48 -19.5q-27 0 -46.5 20t-19.5 46q0 28 19.5 48t46.5 20q28 0 48 -20t20 -48zM383 592q0 -27 -20 -46.5t-48 -19.5q-27 0 -46.5 20t-19.5 46q0 28 19.5 48t46.5 20q28 0 48 -20t20 -48zM269 0h-134v489h134v-489z" />
    <glyph glyph-name="eth" unicode="&#xf0;" 
d="M303 116q50 1 76 32t26 71q0 43 -28 72.5t-74 29.5t-70.5 -30t-24.5 -72q0 -41 24.5 -72t70.5 -31zM111 505l331 166l43 -85l-331 -166zM534 224q-3 -99 -64.5 -167.5t-162.5 -68.5q-98 0 -162 71.5t-65 164.5q0 95 58 160t137 69q25 1 51 -5q-44 72 -185 124l55 109
q162 -41 250 -166.5t88 -290.5z" />
    <glyph glyph-name="ntilde" unicode="&#xf1;" 
d="M528 0h-132v294q-2 34 -26.5 57t-59.5 25q-38 -1 -62.5 -24t-27.5 -56v-296h-134v489h134v-30q49 42 122 42q78 0 132 -59t54 -148v-294zM467 662q-3 -61 -35.5 -90.5t-72.5 -28.5q-12 1 -18 2t-16 4l-54 18q-8 2 -13.5 3t-16.5 1q-14 0 -24.5 -9.5t-17.5 -29.5h-52
q3 59 31 88t67 29q12 -1 17 -2l15 -3l58 -19q10 -2 15 -2.5t16 -0.5q15 1 26 11t14 29h61z" />
    <glyph glyph-name="ograve" unicode="&#xf2;" 
d="M536 244q0 -109 -64 -181t-168 -72q-95 0 -160.5 74t-65.5 179q0 109 65.5 183t160.5 74q95 -1 163.5 -74.5t68.5 -182.5zM409 244q0 54 -24 91t-78 39q-52 -1 -77.5 -38.5t-24.5 -91.5q0 -52 27.5 -87.5t75.5 -36.5q48 1 74.5 34.5t26.5 89.5zM330 523l-122 137h130
l69 -137h-77z" />
    <glyph glyph-name="oacute" unicode="&#xf3;" 
d="M536 244q0 -109 -64 -181t-168 -72q-95 0 -160.5 74t-65.5 179q0 109 65.5 183t160.5 74q95 -1 163.5 -74.5t68.5 -182.5zM409 244q0 54 -24 91t-78 39q-52 -1 -77.5 -38.5t-24.5 -91.5q0 -52 27.5 -87.5t75.5 -36.5q48 1 74.5 34.5t26.5 89.5zM208 523l69 137h130
l-122 -137h-77z" />
    <glyph glyph-name="ocircumflex" unicode="&#xf4;" 
d="M536 244q0 -109 -64 -181t-168 -72q-95 0 -160.5 74t-65.5 179q0 109 65.5 183t160.5 74q95 -1 163.5 -74.5t68.5 -182.5zM409 244q0 54 -24 91t-78 39q-52 -1 -77.5 -38.5t-24.5 -91.5q0 -52 27.5 -87.5t75.5 -36.5q48 1 74.5 34.5t26.5 89.5zM382 527l-75 75l-75 -75
h-78l97 137h112l98 -137h-79z" />
    <glyph glyph-name="otilde" unicode="&#xf5;" 
d="M536 244q0 -109 -64 -181t-168 -72q-95 0 -160.5 74t-65.5 179q0 109 65.5 183t160.5 74q95 -1 163.5 -74.5t68.5 -182.5zM409 244q0 54 -24 91t-78 39q-52 -1 -77.5 -38.5t-24.5 -91.5q0 -52 27.5 -87.5t75.5 -36.5q48 1 74.5 34.5t26.5 89.5zM467 662
q-3 -61 -35.5 -90.5t-72.5 -28.5q-12 1 -18 2t-16 4l-54 18q-8 2 -13.5 3t-16.5 1q-14 0 -24.5 -9.5t-17.5 -29.5h-52q3 59 31 88t67 29q12 -1 17 -2l15 -3l58 -19q10 -2 15 -2.5t16 -0.5q15 1 26 11t14 29h61z" />
    <glyph glyph-name="odieresis" unicode="&#xf6;" 
d="M536 244q0 -109 -64 -181t-168 -72q-95 0 -160.5 74t-65.5 179q0 109 65.5 183t160.5 74q95 -1 163.5 -74.5t68.5 -182.5zM409 244q0 54 -24 91t-78 39q-52 -1 -77.5 -38.5t-24.5 -91.5q0 -52 27.5 -87.5t75.5 -36.5q48 1 74.5 34.5t26.5 89.5zM261 592q0 -27 -20 -46.5
t-48 -19.5q-27 0 -46.5 20t-19.5 46q0 28 19.5 48t46.5 20q28 0 48 -20t20 -48zM488 592q0 -27 -20 -46.5t-48 -19.5q-27 0 -46.5 20t-19.5 46q0 28 19.5 48t46.5 20q28 0 48 -20t20 -48z" />
    <glyph glyph-name="divide" unicode="&#xf7;" horiz-adv-x="575" 
d="M288 284q22 0 39.5 -17t17.5 -41t-17.5 -41t-39.5 -17q-25 0 -42 17t-17 41t17 41t42 17zM58 415h460v-76h-460v76zM288 584q22 0 39.5 -16.5t17.5 -40.5t-17.5 -41t-39.5 -17q-25 0 -42 17t-17 41t17 40.5t42 16.5z" />
    <glyph glyph-name="oslash" unicode="&#xf8;" 
d="M546 501l-376 -511h-102l364 511h114zM536 244q0 -109 -64 -181t-168 -72q-95 0 -160.5 74t-65.5 179q0 109 65.5 183t160.5 74q95 -1 163.5 -74.5t68.5 -182.5zM409 244q0 54 -24 91t-78 39q-52 -1 -77.5 -38.5t-24.5 -91.5q0 -52 27.5 -87.5t75.5 -36.5q48 1 74.5 34.5
t26.5 89.5z" />
    <glyph glyph-name="ugrave" unicode="&#xf9;" 
d="M86 489h132v-294q2 -34 26.5 -57t59.5 -25q38 1 62.5 24t27.5 56v296h134v-489h-134v30q-49 -42 -122 -42q-78 0 -132 59t-54 148v294zM330 523l-122 137h130l69 -137h-77z" />
    <glyph glyph-name="uacute" unicode="&#xfa;" 
d="M86 489h132v-294q2 -34 26.5 -57t59.5 -25q38 1 62.5 24t27.5 56v296h134v-489h-134v30q-49 -42 -122 -42q-78 0 -132 59t-54 148v294zM208 523l69 137h130l-122 -137h-77z" />
    <glyph glyph-name="ucircumflex" unicode="&#xfb;" 
d="M86 489h132v-294q2 -34 26.5 -57t59.5 -25q38 1 62.5 24t27.5 56v296h134v-489h-134v30q-49 -42 -122 -42q-78 0 -132 59t-54 148v294zM382 527l-75 75l-75 -75h-78l97 137h112l98 -137h-79z" />
    <glyph glyph-name="udieresis" unicode="&#xfc;" 
d="M86 489h132v-294q2 -34 26.5 -57t59.5 -25q38 1 62.5 24t27.5 56v296h134v-489h-134v30q-49 -42 -122 -42q-78 0 -132 59t-54 148v294zM261 592q0 -27 -20 -46.5t-48 -19.5q-27 0 -46.5 20t-19.5 46q0 28 19.5 48t46.5 20q28 0 48 -20t20 -48zM488 592q0 -27 -20 -46.5
t-48 -19.5q-27 0 -46.5 20t-19.5 46q0 28 19.5 48t46.5 20q28 0 48 -20t20 -48z" />
    <glyph glyph-name="yacute" unicode="&#xfd;" horiz-adv-x="645" 
d="M223 523l69 137h130l-122 -137h-77zM604 489l-318 -738h-147l110 249l-207 489h153l128 -315l138 315h143z" />
    <glyph glyph-name="thorn" unicode="&#xfe;" 
d="M87 618l125 63v-213q43 33 115 33q82 0 142 -75.5t60 -178.5q0 -104 -53.5 -180t-148.5 -76q-65 0 -115 32v-209l-125 -63v867zM212 167q33 -47 94 -47q40 0 66 37t26 92t-26 90t-66 35q-62 0 -94 -47v-160z" />
    <glyph glyph-name="ydieresis" unicode="&#xff;" horiz-adv-x="645" 
d="M276 592q0 -27 -20 -46.5t-48 -19.5q-27 0 -46.5 20t-19.5 46q0 28 19.5 48t46.5 20q28 0 48 -20t20 -48zM503 592q0 -27 -20 -46.5t-48 -19.5q-27 0 -46.5 20t-19.5 46q0 28 19.5 48t46.5 20q28 0 48 -20t20 -48zM604 489l-318 -738h-147l110 249l-207 489h153l128 -315
l138 315h143z" />
  </font>
</defs>
</svg>
